<?xml version="1.0" encoding="iso-8859-1"?>
<!-- Generator: Adobe Illustrator 19.0.0, SVG Export Plug-In . SVG Version: 6.00 Build 0)  -->
<svg version="1.1" id="Capa_1" xmlns="http://www.w3.org/2000/svg" xmlns:xlink="http://www.w3.org/1999/xlink" x="0px" y="0px"
	 viewBox="0 0 408 408" style="enable-background:new 0 0 408 408;" xml:space="preserve">
<g>
	<g>
		<path d="M372,88.661H206.32l-33-39.24c-0.985-1.184-2.461-1.848-4-1.8H36c-19.956,0.198-36.023,16.443-36,36.4v240
			c-0.001,19.941,16.06,36.163,36,36.36h336c19.94-0.197,36.001-16.419,36-36.36v-199C408.001,105.08,391.94,88.859,372,88.661z
			 M270.44,194.741c-2.108,5.749-7.597,9.557-13.72,9.52h-20v86.68c-1.289,18.778-17.556,32.955-36.334,31.666
			c-16.983-1.166-30.501-14.684-31.666-31.666v-86.72h-20c-8.085-0.009-14.633-6.57-14.624-14.656
			c0.004-4.021,1.662-7.862,4.584-10.624l44.4-41.92c9.658-9.166,24.71-9.461,34.72-0.68l48.56,42.2
			C271.001,182.54,272.634,189.021,270.44,194.741z"/>
	</g>
</g>
<g>
</g>
<g>
</g>
<g>
</g>
<g>
</g>
<g>
</g>
<g>
</g>
<g>
</g>
<g>
</g>
<g>
</g>
<g>
</g>
<g>
</g>
<g>
</g>
<g>
</g>
<g>
</g>
<g>
</g>
</svg>
