<?xml version="1.0" encoding="iso-8859-1"?>
<!-- Generator: Adobe Illustrator 19.0.0, SVG Export Plug-In . SVG Version: 6.00 Build 0)  -->
<svg version="1.1" id="Capa_1" xmlns="http://www.w3.org/2000/svg" xmlns:xlink="http://www.w3.org/1999/xlink" x="0px" y="0px"
	 viewBox="0 0 408 408" style="enable-background:new 0 0 408 408;" xml:space="preserve">
<g>
	<g>
		<path d="M332,121.921H184.8l-29.28-34.8c-0.985-1.184-2.461-1.848-4-1.8H32.76C14.628,85.453,0,100.189,0,118.321v214.04
			c0.022,18.194,14.766,32.938,32.96,32.96H332c18.194-0.022,32.938-14.766,32.96-32.96v-177.48
			C364.938,136.687,350.194,121.943,332,121.921z M242.48,308.201c0,12.835-10.405,23.24-23.24,23.24h-73.56
			c-12.835,0-23.24-10.405-23.24-23.24v-73.56c0-12.835,10.405-23.24,23.24-23.24h63.24v-16.32
			c0.008-14.625-11.842-26.486-26.466-26.494s-26.486,11.842-26.494,26.466c0,0.009,0,0.019,0,0.028c0,2.761-2.239,5-5,5
			s-5-2.239-5-5c0-20.158,16.342-36.5,36.5-36.5s36.5,16.342,36.5,36.5v16.32h0.28c12.835,0,23.24,10.405,23.24,23.24V308.201z"/>
	</g>
</g>
<g>
	<g>
		<path d="M200.164,241.793c-1.173-1.665-2.574-3.157-4.164-4.432c-5.275-4.112-12.142-5.586-18.64-4
			c-7.928,1.881-14.119,8.072-16,16c-1.963,8.591,1.428,17.519,8.6,22.64v25.6c0,6.893,5.587,12.48,12.48,12.48
			s12.48-5.588,12.48-12.48v-25.6C204.71,265.107,207.057,251.583,200.164,241.793z"/>
	</g>
</g>
<g>
	<g>
		<path d="M375.24,79.281H228l-29.28-34.8c-0.985-1.184-2.461-1.848-4-1.8H76c-16.452,0.027-30.364,12.181-32.6,28.48h108.28
			c5.678-0.014,11.069,2.492,14.72,6.84l25,29.72H332c26.005,0.044,47.076,21.115,47.12,47.12v167.52
			c16.488-2.057,28.867-16.064,28.88-32.68v-177.48C407.957,94.1,393.34,79.413,375.24,79.281z"/>
	</g>
</g>
<g>
</g>
<g>
</g>
<g>
</g>
<g>
</g>
<g>
</g>
<g>
</g>
<g>
</g>
<g>
</g>
<g>
</g>
<g>
</g>
<g>
</g>
<g>
</g>
<g>
</g>
<g>
</g>
<g>
</g>
</svg>
