<?xml version="1.0" encoding="iso-8859-1"?>
<!-- Generator: Adobe Illustrator 19.0.0, SVG Export Plug-In . SVG Version: 6.00 Build 0)  -->
<svg version="1.1" id="Capa_1" xmlns="http://www.w3.org/2000/svg" xmlns:xlink="http://www.w3.org/1999/xlink" x="0px" y="0px"
	 viewBox="0 0 408 408" style="enable-background:new 0 0 408 408;" xml:space="preserve">
<g>
	<g>
		<path d="M206.6,215.461c-0.013,0-0.027,0-0.04,0c-2.761,0-5,2.239-5,5v51.28c0,2.761,2.239,5,5,5s5-2.239,5-5v-51.24
			C211.582,217.74,209.362,215.483,206.6,215.461z"/>
	</g>
</g>
<g>
	<g>
		<path d="M181.16,215.461c-2.76-0.089-5.069,2.077-5.158,4.837c-0.002,0.068-0.003,0.135-0.002,0.203v51.24c0,2.761,2.239,5,5,5
			s5-2.239,5-5v-51.24C186.023,217.786,183.874,215.548,181.16,215.461z"/>
	</g>
</g>
<g>
	<g>
		<path d="M209.96,144.381h-11.8c-7.685,0.017-14.449,5.074-16.64,12.44h45.08C224.409,149.455,217.645,144.398,209.96,144.381z"/>
	</g>
</g>
<g>
	<g>
		<path d="M232.44,215.461c-0.013,0-0.027,0-0.04,0c-2.761,0-5,2.239-5,5v51.28c0,2.761,2.239,5,5,5s5-2.239,5-5v-51.24
			C237.422,217.74,235.202,215.483,232.44,215.461z"/>
	</g>
</g>
<g>
	<g>
		<path d="M372,88.661H206.32l-33-39.24c-0.985-1.184-2.461-1.848-4-1.8H36c-19.956,0.198-36.023,16.443-36,36.4v240
			c-0.001,19.941,16.06,36.163,36,36.36h336c19.94-0.197,36.001-16.419,36-36.36v-199C408.001,105.08,391.94,88.859,372,88.661z
			 M261.56,197.701h-0.04v88.48c0,15.464-12.536,28-28,28h-55c-15.464,0-28-12.536-28-28v-88.48
			c-10.935-3.995-16.561-16.098-12.566-27.034c3.034-8.304,10.926-13.832,19.766-13.846h13.48c2.426-13.003,13.772-22.433,27-22.44
			H210c13.228,0.007,24.574,9.437,27,22.44h17.36c11.642,0.019,21.065,9.471,21.046,21.114
			C275.392,186.775,269.864,194.668,261.56,197.701z"/>
	</g>
</g>
<g>
</g>
<g>
</g>
<g>
</g>
<g>
</g>
<g>
</g>
<g>
</g>
<g>
</g>
<g>
</g>
<g>
</g>
<g>
</g>
<g>
</g>
<g>
</g>
<g>
</g>
<g>
</g>
<g>
</g>
</svg>
