<?xml version="1.0" encoding="iso-8859-1"?>
<!-- Generator: Adobe Illustrator 19.0.0, SVG Export Plug-In . SVG Version: 6.00 Build 0)  -->
<svg version="1.1" id="Capa_1" xmlns="http://www.w3.org/2000/svg" xmlns:xlink="http://www.w3.org/1999/xlink" x="0px" y="0px"
	 viewBox="0 0 408 408" style="enable-background:new 0 0 408 408;" xml:space="preserve">
<g>
	<g>
		<path d="M372,88.681H206.32l-33-39.24c-0.985-1.184-2.461-1.848-4-1.8H36C16.069,47.86,0.021,64.069,0,84.001v240
			c0.021,19.932,16.069,36.141,36,36.36h336c19.931-0.219,35.979-16.428,36-36.36v-199C407.957,105.084,391.916,88.9,372,88.681z
			 M260.64,263.681H147.36c-20.026,0-36.26-16.234-36.26-36.26s16.234-36.26,36.26-36.26h113.28c20.026,0,36.26,16.234,36.26,36.26
			S280.666,263.681,260.64,263.681z"/>
	</g>
</g>
<g>
</g>
<g>
</g>
<g>
</g>
<g>
</g>
<g>
</g>
<g>
</g>
<g>
</g>
<g>
</g>
<g>
</g>
<g>
</g>
<g>
</g>
<g>
</g>
<g>
</g>
<g>
</g>
<g>
</g>
</svg>
