<?xml version="1.0" encoding="iso-8859-1"?>
<!-- Generator: Adobe Illustrator 19.0.0, SVG Export Plug-In . SVG Version: 6.00 Build 0)  -->
<svg version="1.1" id="Capa_1" xmlns="http://www.w3.org/2000/svg" xmlns:xlink="http://www.w3.org/1999/xlink" x="0px" y="0px"
	 viewBox="0 0 408 408" style="enable-background:new 0 0 408 408;" xml:space="preserve">
<g>
	<g>
		<path d="M372,88.681H206.32l-33-39.24c-0.985-1.184-2.461-1.848-4-1.8H36C16.06,47.839-0.001,64.06,0,84.001v240
			c-0.001,19.941,16.06,36.163,36,36.36h336c19.94-0.197,36.001-16.419,36-36.36v-199C407.979,105.076,391.925,88.878,372,88.681z
			 M269.68,241.841c14.161,14.145,14.174,37.091,0.029,51.251c-0.01,0.01-0.019,0.019-0.029,0.029
			c-14.145,14.161-37.091,14.174-51.251,0.029c-0.01-0.01-0.019-0.019-0.029-0.029l-14.4-14.4l-14.4,14.4
			c-14.161,14.161-37.119,14.161-51.28,0s-14.161-37.119,0-51.28l14.4-14.4l-14.4-14.4c-14.161-14.161-14.161-37.119,0-51.28
			s37.119-14.161,51.28,0l14.4,14.24l14.4-14.4c14.205-14.161,37.199-14.125,51.36,0.08s14.125,37.199-0.08,51.36l-14.4,14.4
			L269.68,241.841z"/>
	</g>
</g>
<g>
</g>
<g>
</g>
<g>
</g>
<g>
</g>
<g>
</g>
<g>
</g>
<g>
</g>
<g>
</g>
<g>
</g>
<g>
</g>
<g>
</g>
<g>
</g>
<g>
</g>
<g>
</g>
<g>
</g>
</svg>
