<?xml version="1.0" encoding="iso-8859-1"?>
<!-- Generator: Adobe Illustrator 19.0.0, SVG Export Plug-In . SVG Version: 6.00 Build 0)  -->
<svg version="1.1" id="Capa_1" xmlns="http://www.w3.org/2000/svg" xmlns:xlink="http://www.w3.org/1999/xlink" x="0px" y="0px"
	 viewBox="0 0 408.034 408.034" style="enable-background:new 0 0 408.034 408.034;" xml:space="preserve">
<g>
	<g>
		<path d="M336.291,158.578c-0.154-16.841-13.838-30.419-30.68-30.44h-135.24l-26.76-32c-0.985-1.184-2.461-1.848-4-1.8H30.491
			C13.525,94.47-0.121,108.33,0.01,125.296c0,0.028,0,0.055,0.001,0.083c-0.015,0.226-0.015,0.454,0,0.68l26.88,196.36
			c0.219,16.794,13.884,30.3,30.68,30.32h274.96c16.935-0.022,30.658-13.745,30.68-30.68c0.021-0.266,0.021-0.534,0-0.8
			L336.291,158.578z"/>
	</g>
</g>
<g>
	<g>
		<path d="M377.531,89.098h-135.24l-26.76-32c-0.985-1.184-2.461-1.848-4-1.8h-109.12c-14.737,0.03-27.376,10.521-30.12,25h67.52
			c5.664-0.002,11.038,2.502,14.68,6.84l22.52,26.76h128.6c24.044,0.104,43.773,19.06,44.84,43.08l18.28,111.16l4.52,27.32
			c1.685-3.779,2.584-7.862,2.64-12l32.12-162.68c0.031-0.319,0.031-0.641,0-0.96C408.012,102.945,394.403,89.23,377.531,89.098z"/>
	</g>
</g>
<g>
</g>
<g>
</g>
<g>
</g>
<g>
</g>
<g>
</g>
<g>
</g>
<g>
</g>
<g>
</g>
<g>
</g>
<g>
</g>
<g>
</g>
<g>
</g>
<g>
</g>
<g>
</g>
<g>
</g>
</svg>
