<?xml version="1.0" encoding="iso-8859-1"?>
<!-- Generator: Adobe Illustrator 19.0.0, SVG Export Plug-In . SVG Version: 6.00 Build 0)  -->
<svg version="1.1" id="Capa_1" xmlns="http://www.w3.org/2000/svg" xmlns:xlink="http://www.w3.org/1999/xlink" x="0px" y="0px"
	 viewBox="0 0 408 408" style="enable-background:new 0 0 408 408;" xml:space="preserve">
<g>
	<g>
		<path d="M182.52,168.601c-14.631,0-26.498,11.849-26.52,26.48v16.36h53v-16.36C208.978,180.466,197.135,168.623,182.52,168.601z"
			/>
	</g>
</g>
<g>
	<g>
		<path d="M200.171,241.78c-1.176-1.662-2.58-3.149-4.171-4.419c-5.273-4.118-12.142-5.592-18.64-4c-7.933,1.873-14.127,8.067-16,16
			c-1.946,8.607,1.479,17.54,8.68,22.64v25.6c0.005,6.893,5.597,12.476,12.489,12.471c6.885-0.005,12.465-5.585,12.471-12.471v-25.6
			C204.773,265.084,207.088,251.554,200.171,241.78z"/>
	</g>
</g>
<g>
	<g>
		<path d="M332,121.921H184.8l-29.28-34.8c-0.985-1.184-2.461-1.848-4-1.8H32.76C14.628,85.453,0,100.189,0,118.321v214.04
			c0.022,18.194,14.766,32.938,32.96,32.96H332c18.194-0.022,32.938-14.766,32.96-32.96v-177.48
			C364.938,136.687,350.194,121.943,332,121.921z M242.56,308.201c-0.022,12.826-10.414,23.218-23.24,23.24h-73.56
			c-12.826-0.022-23.218-10.414-23.24-23.24v-73.56c0-12.835,10.405-23.24,23.24-23.24h0.28v-16.32c0-20.158,16.342-36.5,36.5-36.5
			s36.5,16.342,36.5,36.5v16.36h0.28c12.835,0,23.24,10.405,23.24,23.24V308.201z"/>
	</g>
</g>
<g>
	<g>
		<path d="M375.24,79.281H228l-29.28-34.8c-0.985-1.184-2.461-1.848-4-1.8H76c-16.452,0.027-30.364,12.181-32.6,28.48h108.28
			c5.678-0.014,11.069,2.492,14.72,6.84l25,29.72H332c26.005,0.044,47.076,21.115,47.12,47.12v167.52
			c16.488-2.057,28.867-16.064,28.88-32.68v-177.48C407.957,94.1,393.34,79.413,375.24,79.281z"/>
	</g>
</g>
<g>
</g>
<g>
</g>
<g>
</g>
<g>
</g>
<g>
</g>
<g>
</g>
<g>
</g>
<g>
</g>
<g>
</g>
<g>
</g>
<g>
</g>
<g>
</g>
<g>
</g>
<g>
</g>
<g>
</g>
</svg>
