<?xml version="1.0" encoding="iso-8859-1"?>
<!-- Generator: Adobe Illustrator 19.0.0, SVG Export Plug-In . SVG Version: 6.00 Build 0)  -->
<svg version="1.1" id="Capa_1" xmlns="http://www.w3.org/2000/svg" xmlns:xlink="http://www.w3.org/1999/xlink" x="0px" y="0px"
	 viewBox="0 0 408 408" style="enable-background:new 0 0 408 408;" xml:space="preserve">
<g>
	<g>
		<path d="M372,88.661H206.32l-33-39.24c-0.985-1.184-2.461-1.848-4-1.8H36c-19.956,0.198-36.023,16.443-36,36.4v240
			c-0.001,19.941,16.06,36.163,36,36.36h336c19.94-0.197,36.001-16.419,36-36.36v-199C408.001,105.08,391.94,88.859,372,88.661z
			 M267.64,281.381h-0.04l-48.52,42.24c-10.01,8.781-25.062,8.486-34.72-0.68L140,281.021c-5.876-5.554-6.138-14.82-0.584-20.696
			c2.762-2.922,6.604-4.58,10.624-4.584h20v-86.72c1.289-18.778,17.556-32.955,36.334-31.666
			c16.983,1.166,30.501,14.684,31.666,31.666v86.68h20c8.085,0.008,14.633,6.57,14.625,14.655
			C272.661,274.584,270.829,278.604,267.64,281.381z"/>
	</g>
</g>
<g>
</g>
<g>
</g>
<g>
</g>
<g>
</g>
<g>
</g>
<g>
</g>
<g>
</g>
<g>
</g>
<g>
</g>
<g>
</g>
<g>
</g>
<g>
</g>
<g>
</g>
<g>
</g>
<g>
</g>
</svg>
