<?xml version="1.0" encoding="iso-8859-1"?>
<!-- Generator: Adobe Illustrator 19.0.0, SVG Export Plug-In . SVG Version: 6.00 Build 0)  -->
<svg version="1.1" id="Capa_1" xmlns="http://www.w3.org/2000/svg" xmlns:xlink="http://www.w3.org/1999/xlink" x="0px" y="0px"
	 viewBox="0 0 408 408" style="enable-background:new 0 0 408 408;" xml:space="preserve">
<g>
	<g>
		<path d="M372,88.661H206.32l-33-39.24c-0.985-1.184-2.461-1.848-4-1.8H36C16.053,47.84-0.001,64.073,0,84.021v240
			c0.021,19.932,16.069,36.141,36,36.36h336c19.931-0.219,35.979-16.428,36-36.36v-199C407.979,105.089,391.931,88.88,372,88.661z
			 M297.52,213.061L297.52,213.061l-80,80c-1.733,1.733-3.636,3.287-5.68,4.64c-14.368,9.499-33.44,7.558-45.6-4.64l-54.8-54.8
			c-7.131-6.475-11.271-15.609-11.44-25.24c0.538-9.794,4.635-19.054,11.52-26.04c14.156-14.097,37.044-14.097,51.2,0l29.16,29.16
			l54.36-54.36c14.145-14.161,37.091-14.174,51.251-0.029c0.01,0.01,0.019,0.019,0.029,0.029
			C311.67,175.946,311.67,198.896,297.52,213.061z"/>
	</g>
</g>
<g>
</g>
<g>
</g>
<g>
</g>
<g>
</g>
<g>
</g>
<g>
</g>
<g>
</g>
<g>
</g>
<g>
</g>
<g>
</g>
<g>
</g>
<g>
</g>
<g>
</g>
<g>
</g>
<g>
</g>
</svg>
