<?xml version="1.0" encoding="iso-8859-1"?>
<!-- Generator: Adobe Illustrator 19.0.0, SVG Export Plug-In . SVG Version: 6.00 Build 0)  -->
<svg version="1.1" id="Capa_1" xmlns="http://www.w3.org/2000/svg" xmlns:xlink="http://www.w3.org/1999/xlink" x="0px" y="0px"
	 viewBox="0 0 408 408" style="enable-background:new 0 0 408 408;" xml:space="preserve">
<g>
	<g>
		<path d="M332,121.921H184.8l-29.28-34.8c-0.985-1.184-2.461-1.848-4-1.8H32.76C14.628,85.453,0,100.189,0,118.321v214.04
			c0.022,18.194,14.766,32.938,32.96,32.96H332c18.194-0.022,32.938-14.766,32.96-32.96v-177.48
			C364.938,136.687,350.194,121.943,332,121.921z M263.729,229.683c-0.161,1.079-0.67,2.076-1.449,2.838v-0.12L228,265.681l8,47
			c0.481,2.719-1.334,5.313-4.054,5.794c-1.103,0.195-2.239,0.014-3.226-0.514l-42-22.2l-42.16,22.2
			c-2.436,1.301-5.465,0.382-6.766-2.054c-0.528-0.988-0.709-2.124-0.514-3.226l8-47l-34.08-33.28
			c-1.917-1.988-1.86-5.153,0.128-7.07c0.724-0.698,1.641-1.161,2.632-1.33l47.2-6.84l21.12-42.76
			c1.458-2.474,4.646-3.298,7.12-1.84c0.759,0.447,1.393,1.081,1.84,1.84l21.12,42.76l47.16,6.84
			C262.251,224.408,264.136,226.952,263.729,229.683z"/>
	</g>
</g>
<g>
	<g>
		<path d="M375.24,79.281H228l-29.28-34.8c-0.985-1.184-2.461-1.848-4-1.8H76c-16.452,0.027-30.364,12.181-32.6,28.48h108.28
			c5.678-0.014,11.069,2.492,14.72,6.84l25,29.72H332c26.005,0.044,47.076,21.115,47.12,47.12v167.52
			c16.488-2.057,28.867-16.064,28.88-32.68v-177.48C407.957,94.1,393.34,79.413,375.24,79.281z"/>
	</g>
</g>
<g>
</g>
<g>
</g>
<g>
</g>
<g>
</g>
<g>
</g>
<g>
</g>
<g>
</g>
<g>
</g>
<g>
</g>
<g>
</g>
<g>
</g>
<g>
</g>
<g>
</g>
<g>
</g>
<g>
</g>
</svg>
