<?xml version="1.0" encoding="iso-8859-1"?>
<!-- Generator: Adobe Illustrator 19.0.0, SVG Export Plug-In . SVG Version: 6.00 Build 0)  -->
<svg version="1.1" id="Capa_1" xmlns="http://www.w3.org/2000/svg" xmlns:xlink="http://www.w3.org/1999/xlink" x="0px" y="0px"
	 viewBox="0 0 408 408" style="enable-background:new 0 0 408 408;" xml:space="preserve">
<g>
	<g>
		<path d="M372,88.661H206.32l-33-39.24c-0.985-1.184-2.461-1.848-4-1.8H36c-19.956,0.198-36.023,16.443-36,36.4v240
			c-0.001,19.941,16.06,36.163,36,36.36h336c19.94-0.197,36.001-16.419,36-36.36v-199C408.001,105.08,391.94,88.859,372,88.661z
			 M260.6,263.741l0.04-0.04h-20.4v20.32c0,20.026-16.234,36.26-36.26,36.26c-20.026,0-36.26-16.234-36.26-36.26v-20.32h-20.36
			c-20.026,0-36.26-16.234-36.26-36.26s16.234-36.26,36.26-36.26h20.36v-20.36c0-20.026,16.234-36.26,36.26-36.26
			c20.026,0,36.26,16.234,36.26,36.26v20.4h20.36c20.026,0,36.26,16.234,36.26,36.26C296.86,247.507,280.626,263.741,260.6,263.741z
			"/>
	</g>
</g>
<g>
</g>
<g>
</g>
<g>
</g>
<g>
</g>
<g>
</g>
<g>
</g>
<g>
</g>
<g>
</g>
<g>
</g>
<g>
</g>
<g>
</g>
<g>
</g>
<g>
</g>
<g>
</g>
<g>
</g>
</svg>
